<svg width="6" height="11" viewBox="0 0 6 11" fill="none" xmlns="http://www.w3.org/2000/svg">
<path fill-rule="evenodd" clip-rule="evenodd" d="M0.293031 0.793031C0.480558 0.60556 0.734866 0.500244 1.00003 0.500244C1.26519 0.500244 1.5195 0.60556 1.70703 0.793031L5.70703 4.79303C5.8945 4.98056 5.99982 5.23487 5.99982 5.50003C5.99982 5.76519 5.8945 6.0195 5.70703 6.20703L1.70703 10.207C1.51843 10.3892 1.26583 10.49 1.00363 10.4877C0.741433 10.4854 0.49062 10.3803 0.305212 10.1948C0.119804 10.0094 0.0146352 9.75863 0.0123568 9.49643C0.0100783 9.23423 0.110873 8.98163 0.293031 8.79303L3.58603 5.50003L0.293031 2.20703C0.10556 2.0195 0.000244141 1.76519 0.000244141 1.50003C0.000244141 1.23487 0.10556 0.980558 0.293031 0.793031Z" fill="black"/>
</svg>
