<svg width="37" height="38" viewBox="0 0 37 38" fill="none" xmlns="http://www.w3.org/2000/svg">
<rect y="0.5" width="37" height="37" rx="18.5" fill="#F7F7FD"/>
<path d="M23.6562 12.3038C20.5322 9.23077 15.4672 9.23077 12.3432 12.3038C11.6014 13.0284 11.0121 13.894 10.6097 14.8497C10.2073 15.8054 10 16.8318 10 17.8688C10 18.9057 10.2073 19.9322 10.6097 20.8879C11.0121 21.8435 11.6014 22.7091 12.3432 23.4338L17.9992 28.9988L23.6562 23.4338C24.3979 22.7091 24.9873 21.8435 25.3897 20.8879C25.792 19.9322 25.9993 18.9057 25.9993 17.8688C25.9993 16.8318 25.792 15.8054 25.3897 14.8497C24.9873 13.894 24.3979 13.0284 23.6562 12.3038ZM17.9992 20.4988C17.3312 20.4988 16.7042 20.2388 16.2312 19.7668C15.7629 19.2975 15.4999 18.6617 15.4999 17.9988C15.4999 17.3359 15.7629 16.7 16.2312 16.2308C16.7032 15.7588 17.3312 15.4988 17.9992 15.4988C18.6672 15.4988 19.2952 15.7588 19.7672 16.2308C20.2354 16.7 20.4984 17.3359 20.4984 17.9988C20.4984 18.6617 20.2354 19.2975 19.7672 19.7668C19.2952 20.2388 18.6672 20.4988 17.9992 20.4988Z" fill="#A540F3"/>
</svg>
