<svg width="37" height="37" viewBox="0 0 37 37" fill="none" xmlns="http://www.w3.org/2000/svg">
<rect width="37" height="37" rx="18.5" fill="#F7F7FD"/>
<path d="M18 14.5C19.0609 14.5 20.0783 14.9214 20.8284 15.6716C21.5786 16.4217 22 17.4391 22 18.5C22 19.5609 21.5786 20.5783 20.8284 21.3284C20.0783 22.0786 19.0609 22.5 18 22.5C16.9391 22.5 15.9217 22.0786 15.1716 21.3284C14.4214 20.5783 14 19.5609 14 18.5C14 17.4391 14.4214 16.4217 15.1716 15.6716C15.9217 14.9214 16.9391 14.5 18 14.5ZM9.05 19.5H7V17.5H9.05C9.5 13.33 12.83 10 17 9.55V7.5H19V9.55C23.17 10 26.5 13.33 26.95 17.5H29V19.5H26.95C26.5 23.67 23.17 27 19 27.45V29.5H17V27.45C12.83 27 9.5 23.67 9.05 19.5ZM18 11.5C16.1435 11.5 14.363 12.2375 13.0503 13.5503C11.7375 14.863 11 16.6435 11 18.5C11 20.3565 11.7375 22.137 13.0503 23.4497C14.363 24.7625 16.1435 25.5 18 25.5C19.8565 25.5 21.637 24.7625 22.9497 23.4497C24.2625 22.137 25 20.3565 25 18.5C25 16.6435 24.2625 14.863 22.9497 13.5503C21.637 12.2375 19.8565 11.5 18 11.5Z" fill="#A540F3"/>
</svg>
